<?xml version="1.0" encoding="utf-8"?>
<!-- Generator: Adobe Illustrator 17.0.0, SVG Export Plug-In . SVG Version: 6.00 Build 0)  -->
<!DOCTYPE svg PUBLIC "-//W3C//DTD SVG 1.1//EN" "http://www.w3.org/Graphics/SVG/1.1/DTD/svg11.dtd">
<svg version="1.1" id="Vrstva_1" xmlns="http://www.w3.org/2000/svg" xmlns:xlink="http://www.w3.org/1999/xlink" x="0px" y="0px"
	 width="1000px" height="1000px" viewBox="0 0 1000 1000" enable-background="new 0 0 1000 1000" xml:space="preserve">
<g>
	<defs>
		<rect id="SVGID_1_" width="1000" height="1000"/>
	</defs>
	<clipPath id="SVGID_2_">
		<use xlink:href="#SVGID_1_"  overflow="visible"/>
	</clipPath>
	<path clip-path="url(#SVGID_2_)" d="M895.858,373.837c-21.407-75.959-86.662-34.872-86.662-34.872
		c-3.798-17.264-23.824-36.599-23.824-36.599c7.596-4.833,24.169-1.726,24.169-1.726c-15.192-63.529-81.829-89.425-81.829-89.425
		c8.632-5.869,27.967-5.524,27.967-5.524c-41.432-45.575-85.972-44.54-85.972-44.54c6.215-7.595,24.169-15.191,24.169-15.191
		c-56.846-34.657-116.667-24.304-154.526-11.055c-25.381,8.883-52.959,8.883-78.339,0c-37.859-13.249-97.68-23.602-154.527,11.055
		c0,0,17.954,7.596,24.169,15.191c0,0-44.539-1.035-85.972,44.54c0,0,19.335-0.345,27.967,5.524c0,0-66.637,25.896-81.829,89.425
		c0,0,16.573-3.107,24.169,1.726c0,0-20.025,19.335-23.823,36.599c0,0-65.256-41.087-86.663,34.872
		c-21.406,75.959,17.264,118.772,27.277,130.512c10.012,11.739,54.897,66.291,56.623,76.304c0,0-2.416,60.767,34.527,110.831
		c0,0,3.108-24.859,26.241-40.051c0,0,6.56,44.54,102.89,114.284c0,0,50.064,98.4,148.12,97.365
		c98.056,1.035,148.12-97.365,148.12-97.365c96.33-69.744,102.89-114.284,102.89-114.284c23.133,15.192,26.241,40.051,26.241,40.051
		c36.944-50.064,34.527-110.831,34.527-110.831c1.726-10.013,46.611-64.565,56.624-76.304
		C878.595,492.609,917.265,449.796,895.858,373.837"/>
	<path clip-path="url(#SVGID_2_)" fill="#ECAC88" d="M177.851,516.31c-18.443-17.945-55.001-65.737-51.707-118.967
		c3.278-53.246,47.419-38.672,47.419-38.672c-5.423,18.085-8.064,33.871-9.121,46.968c-2.299,28.138,2.611,43.955,2.611,43.955
		c2.688-8.639,11.078-9.602,11.078-9.602C167.348,467.259,177.851,516.31,177.851,516.31"/>
	<path clip-path="url(#SVGID_2_)" fill="#ECAC88" d="M826.558,358.67c0,0,44.13-14.58,47.419,38.665
		c3.29,53.245-33.271,101.033-51.719,118.968c0,0,10.511-49.04-0.267-76.307c0,0,8.377,0.958,11.071,9.593
		C833.062,449.589,843.612,415.603,826.558,358.67"/>
	<path clip-path="url(#SVGID_2_)" fill="#ECAC88" d="M700.783,548.022c-2.453,28.159-10.029,52.102-18.349,70.972
		c-7.166,16.251-28.333,20.362-41.043,7.957c-24.526-23.936-62.005-60.433-84.59-82.036c-35.736-34.182-56.617,0.528-56.617,0.528
		s-20.898-34.71-56.633-0.528c-22.585,21.602-60.064,58.099-84.589,82.035c-12.711,12.406-33.879,8.294-41.044-7.958
		c-8.318-18.87-15.89-42.812-18.334-70.97c-2.672-30.639-8.312-95.615,36.761-134.132c21.985-18.769,58.388-33.28,96.858-22.793
		c44.157,12.057,63.811,49.626,66.981,55.934c3.169-6.308,22.824-43.877,66.98-55.934c38.47-10.487,74.873,4.024,96.843,22.793
		C709.095,452.407,703.44,517.383,700.783,548.022"/>
	<path clip-path="url(#SVGID_2_)" fill="#3E3530" d="M781.918,422.513c0,0,33.498,71.828,1.725,145.023
		c0,0,3.449,42.121-10.006,65.94c0,0-9.322-19.329-35.565-25.885c0,0-1.041,40.396-44.545,83.201c0,0,53.168-127.746,27.625-232.015
		c0,0,32.457,9.664,35.223,28.992c0,0,17.262-70.43-26.941-133.262c0,0,19.343,3.449,25.558,6.899c0,0-24.688-67.152-86.837-101.846
		c0,0,21.209-7.24,29.505-1.057c-0.808-0.745-31.12-28.339-73.008-19.141c0,0,12.429-27.967,25.9-31.074
		c0,0-63.531-45.058-150.368-15.538c-48.118-16.36-89.09-9.819-116.046-0.73c-21.69,7.318-34.322,16.268-34.322,16.268
		c13.471,3.107,25.9,31.074,25.9,31.074c-41.903-9.198-72.2,18.396-73.008,19.141c8.296-6.183,29.505,1.057,29.505,1.057
		c-62.149,34.694-86.837,101.846-86.837,101.846c6.215-3.45,25.543-6.899,25.543-6.899
		c-44.188,62.832-26.926,133.262-26.926,133.262c2.766-19.328,35.223-28.992,35.223-28.992c-2.269,9.244-3.916,18.675-5.019,28.184
		c-11.529,97.744,32.628,203.831,32.628,203.831c-43.504-42.805-44.529-83.201-44.529-83.201
		c-26.242,6.556-35.565,25.885-35.565,25.885c-13.47-23.819-10.021-65.94-10.021-65.94c-31.758-73.195,1.724-145.023,1.724-145.023
		c-12.072,5.189-20.711,17.277-20.711,17.277c-2.765-101.861,62.848-148.472,62.848-148.472c-3.807-4.832-26.242-5.873-26.242-5.873
		c18.644-36.59,96.33-78.711,96.33-78.711c-8.639-8.981-31.774-8.297-31.774-8.297c25.559-18.644,75.62-23.818,75.62-23.818
		c-0.513-4.661-4.398-8.81-8.157-11.777c-2.782-2.207-5.299-3.854-7.381-4.801c9.664-4.211,25.248-9.369,43.675-7.241
		c19.126,2.191,27.268,10.612,49.206,16.05c8.468,2.098,20.696,4.164,36.435,3.543c3.962-0.171,7.923-0.249,11.901-0.249
		c3.962,0,7.924,0.078,11.886,0.249c15.739,0.621,27.967-1.445,36.45-3.543c21.938-5.438,30.08-13.859,49.206-16.05
		c18.411-2.128,34.011,3.03,43.675,7.241c-2.082,0.947-4.615,2.594-7.381,4.801c-3.759,2.967-7.644,7.116-8.157,11.777
		c0,0,50.061,5.174,75.604,23.818c0,0-23.135-0.684-31.758,8.297c0,0,77.686,42.121,96.33,78.711c0,0-22.451,1.041-26.242,5.873
		c0,0,65.598,46.611,62.832,148.472C802.629,439.79,794.006,427.702,781.918,422.513"/>
	<path clip-path="url(#SVGID_2_)" fill="#3E3530" d="M736.689,442.198c-5.252-6.23-62.506-72.869-122.572-83.9
		c-24.02-4.413-45.57-1.041-45.57-1.041c-9.556,1.507-28.185,4.63-47.311,17.961c-9.835,6.867-16.687,14.263-21.052,19.685
		c-4.367-5.422-11.218-12.818-21.069-19.685c-19.11-13.331-37.739-16.454-47.295-17.961c0,0-21.565-3.372-45.586,1.041
		c-60.066,11.031-117.32,77.67-122.556,83.9c11.389-75.262,69.047-128.787,69.047-128.787c-10.006-3.449-26.242,0-26.242,0
		l0.015-0.015c39.014-52.469,105.295-59.026,105.295-59.026c-2.424-25.885-14.496-41.779-14.496-41.779
		c74.92-20.369,102.887,11.047,102.887,11.047s27.966-31.416,102.886-11.047c0,0-12.088,15.894-14.496,41.779
		c0,0,66.281,6.557,105.295,59.041c0,0-16.221-3.449-26.227,0C667.642,313.411,725.3,366.937,736.689,442.198"/>
	<path clip-path="url(#SVGID_2_)" fill="#ECAC88" d="M623.61,766.069c-23.212,47.435-70.818,62.692-83.9,66.281
		c-15.941,4.382-29.878,4.957-39.527,4.661c-9.648,0.296-23.6-0.279-39.541-4.661c-13.083-3.589-60.688-18.846-83.901-66.281
		c-22.482-45.959-6.603-90.519-1.025-106.18c0,0,12.88-36.155,85.967-92.695c1.973-1.522,5.997-4.505,11.652-5.034
		c15.071-1.414,26.848,15.91,26.848,15.91s11.762-17.324,26.833-15.91c5.671,0.529,9.695,3.512,11.668,5.034
		c73.087,56.54,85.967,92.695,85.967,92.695C630.229,675.55,646.092,720.11,623.61,766.069"/>
	<path clip-path="url(#SVGID_2_)" fill="#C5855F" d="M664.022,413.89c0,0,52.298,109.102-5.702,187.828l-104.969-87.707
		c0,0-32.441-27.625-53.168-6.898c-20.726-20.727-53.168,6.898-53.168,6.898l-104.968,87.707
		c-58-78.726-5.702-187.828-5.702-187.828c-45.073,38.516-39.433,103.493-36.761,134.132c2.598,29.941,10.995,55.117,19.923,74.494
		c6.656,14.449,25.581,17.976,36.964,6.864c24.414-23.831,63.716-62.118,87.08-84.466c35.735-34.181,56.632,0.529,56.632,0.529
		s20.898-34.71,56.633-0.529c23.364,22.348,62.666,60.635,87.079,84.466c11.384,11.112,30.309,7.585,36.965-6.864
		c8.928-19.377,17.324-44.553,19.923-74.494C703.455,517.383,709.095,452.406,664.022,413.89"/>
	<path clip-path="url(#SVGID_2_)" fill="#C5855F" d="M624.652,659.889c0,0-12.881-36.155-85.967-92.695
		c-1.973-1.522-5.997-4.505-11.653-5.034c-15.071-1.413-26.848,15.91-26.848,15.91s-11.777-17.323-26.848-15.91
		c-5.656,0.529-9.68,3.512-11.653,5.034c-73.086,56.54-85.967,92.695-85.967,92.695c-5.578,15.661-21.457,60.222,1.026,106.18
		c23.212,47.435,70.818,62.692,83.9,66.281c15.941,4.382,29.893,4.957,39.542,4.662c9.648,0.295,23.601-0.28,39.542-4.662
		c13.082-3.589,60.688-18.846,83.9-66.281C646.108,720.111,630.229,675.55,624.652,659.889 M597.213,706.5
		c-8.81,60.595-97.029,92.181-97.029,92.181s-88.22-31.586-97.029-92.181c-8.794-60.595,61.635-109.801,61.635-109.801
		l12.943,14.512l22.451,18.116l22.451-18.116l12.942-14.512C535.577,596.699,606.007,645.905,597.213,706.5"/>
	<path clip-path="url(#SVGID_2_)" d="M540.368,588.101c-3.504-6.476-10.482-7.937-11.53-8.139
		c3.103,11.142,1.403,15.413-0.691,17.264c-3.085,2.726-7.118,0.281-11.739,3.798c-3.498,2.661-2.914,5.376-6.56,9.322
		c-3.149,3.408-6.954,5.031-9.667,5.869c-2.714-0.838-6.519-2.461-9.668-5.869c-3.646-3.946-3.062-6.661-6.56-9.322
		c-4.621-3.517-8.654-1.072-11.739-3.798c-2.094-1.851-3.794-6.122-0.691-17.264c-1.048,0.202-8.025,1.663-11.53,8.139
		c-3.602,6.657-0.742,13.454-0.209,14.649c3.135,7.031,8.224,5.266,16.573,13.811c7.069,7.235,7.035,12.199,13.94,15.537
		c3.756,1.815,7.405,2.105,9.884,2.071c2.478,0.034,6.127-0.256,9.883-2.071c6.906-3.338,6.871-8.302,13.94-15.537
		c8.349-8.545,13.438-6.78,16.573-13.811C541.11,601.555,543.97,594.758,540.368,588.101"/>
	<path clip-path="url(#SVGID_2_)" fill="#28211D" d="M693.866,313.396c-39.014-52.469-105.295-59.025-105.295-59.025
		c2.424-25.885,14.496-41.78,14.496-41.78c-10.638-4.56-39.508-15.181-72.931-5.609c-12.684,3.633-22.691,9.219-29.954,14.238
		c-7.262-5.019-17.269-10.605-29.953-14.238c-33.424-9.572-62.294,1.049-72.932,5.609c0,0,12.073,15.895,14.497,41.78
		c0,0-66.282,6.556-105.295,59.025c0.777-0.606,25.76-20.183,62.474-20.183c0,0-25.884,31.074-25.884,44.545
		c16.889-5.866,48.809-14.395,88.556-9.327c30.649,3.908,54.123,14.392,68.536,22.268v0.002c0-0.001,0.001-0.001,0.001-0.001
		c0.001,0,0.002,0,0.002,0.001v-0.002c14.412-7.876,37.887-18.36,68.536-22.268c39.746-5.068,71.667,3.461,88.556,9.327
		c0-13.471-25.885-44.545-25.885-44.545C668.106,293.213,693.089,312.79,693.866,313.396"/>
	<path clip-path="url(#SVGID_2_)" fill="#28211D" d="M306.825,690.792c-43.504-42.805-44.529-83.201-44.529-83.201
		c-26.242,6.556-35.565,25.885-35.565,25.885c-13.47-23.819-10.021-65.94-10.021-65.94c-31.758-73.195,1.724-145.023,1.724-145.023
		s8.126,88.22,26.771,109.459c0,0,5.314-24.922,28.992-45.011C262.669,584.705,306.825,690.792,306.825,690.792"/>
	<path clip-path="url(#SVGID_2_)" d="M598.237,324.809c-4.383-1.622-24.406-8.557-46.093-2.072
		c-9.126,2.729-12.019,5.883-27.967,11.394c-9.967,3.445-18.39,5.515-23.996,6.732c-5.606-1.217-14.03-3.287-23.996-6.732
		c-15.948-5.511-18.842-8.665-27.967-11.394c-21.687-6.485-41.711,0.45-46.093,2.072c-21.042,7.786-32.503,22.946-36.599,29.003
		c33.937-16.824,55.447-15.305,69.054-10.358c10.309,3.747,20.945,11.231,41.432,15.191c0,0,1.329,0.257,24.169,4.143
		c22.84-3.886,24.168-4.143,24.169-4.143c20.487-3.96,31.123-11.444,41.432-15.191c13.606-4.947,35.116-6.466,69.053,10.358
		C630.74,347.755,619.277,332.595,598.237,324.809"/>
	<path clip-path="url(#SVGID_2_)" fill="#28211D" d="M693.539,690.792c43.504-42.805,44.529-83.201,44.529-83.201
		c26.242,6.556,35.565,25.885,35.565,25.885c13.47-23.819,10.021-65.94,10.021-65.94c31.758-73.195-1.724-145.023-1.724-145.023
		s-8.126,88.22-26.771,109.459c0,0-5.314-24.922-28.992-45.011C737.695,584.705,693.539,690.792,693.539,690.792"/>
	<path clip-path="url(#SVGID_2_)" fill="#28211D" d="M625.86,174.619c0.513-4.661,4.397-8.809,8.157-11.777
		c2.781-2.206,5.298-3.853,7.38-4.801c-9.664-4.211-25.248-9.369-43.675-7.24c-19.126,2.19-27.267,10.612-49.206,16.05
		c-8.467,2.097-20.695,4.163-36.434,3.542c-3.961-0.171-7.922-0.249-11.898-0.249h-0.002h-0.002c-3.976,0-7.937,0.078-11.897,0.249
		c-15.74,0.621-27.967-1.445-36.435-3.542c-21.938-5.438-30.08-13.86-49.206-16.05c-18.427-2.129-34.011,3.029-43.675,7.24
		c2.082,0.948,4.599,2.595,7.38,4.801c3.76,2.968,7.645,7.116,8.157,11.777c0,0-50.06,5.174-75.619,23.818
		c0,0,57.488-10.751,85.252-6.416c26.957-9.089,67.926-15.63,116.043,0.729v0.001c0.001,0,0.002-0.001,0.002-0.001
		c0.001,0,0.001,0.001,0.002,0.001v-0.001c48.117-16.359,89.087-9.818,116.043-0.729c27.765-4.335,85.252,6.416,85.252,6.416
		C675.921,179.793,625.86,174.619,625.86,174.619"/>
	<path clip-path="url(#SVGID_2_)" d="M597.518,687.492c-5.341-3.501-11.618-6.78-18.875-9.284
		c-12.159-4.196-27.214-3.701-40.884-1.559c-12.458,1.951-25.006,3.219-37.578,3.753c-12.573-0.534-25.121-1.802-37.578-3.753
		c-13.671-2.142-28.726-2.637-40.885,1.559c-7.256,2.504-13.533,5.783-18.874,9.284c-11.783,7.723-16.794,22.602-12.107,35.888
		c9.934,28.161,37.248,75.32,109.399,80.427c0.015-0.001,0.03-0.003,0.045-0.004c0.015,0.001,0.029,0.003,0.044,0.004
		c72.151-5.107,99.465-52.266,109.4-80.427C614.311,710.094,609.3,695.215,597.518,687.492"/>
	<path clip-path="url(#SVGID_2_)" fill="#B55310" d="M468.108,739.481c-0.81,0.032-1.634,0.146-2.415-0.112
		c-0.735-0.242-1.433-0.057-2.19-0.057c-1.503,0-3.006,0-4.51,0c-1.486,0-2.901-0.277-4.348-0.561
		c-0.543-0.107-1.099-0.284-1.646-0.373c-0.39-0.063-0.755-0.001-1.144-0.101c-0.498-0.128-0.975-0.23-1.48-0.298
		c-0.36-0.049-0.675-0.066-1.034-0.08c-0.386-0.015-0.806,0.051-1.171-0.11c-0.423-0.187-0.896-0.477-1.354-0.561
		c-2.979-0.545-5.979-0.98-8.98-1.408c-2.097-0.299-3.43-2.408-3.619-4.446c-2.5,0.595-4.714,1.846-6.391,4.49
		c-1.064,1.677-2.291,3.183-3.685,4.542c-0.66,0.643-1.285,1.32-2.028,1.838c-1.007,0.703-1.677,1.594-2.506,2.475
		c-0.408,0.435-0.949,0.8-1.371,1.247c-0.403,0.427-0.697,0.917-1.084,1.356c-0.717,0.813-1.776,1.483-1.838,2.621
		c-0.05,0.922,0.184,1.832,0.273,2.743c0.105,1.075,0.285,2.145,0.599,3.18c0.165,0.543,0.469,0.829,0.734,1.297
		c0.287,0.508,0.389,1.242,0.559,1.795c0.305,0.992,1.227,1.676,1.483,2.684c0.235,0.926,0.34,1.802,0.856,2.663
		c0.703,1.173,1.934,1.729,2.892,2.62c0.511,0.475,1.175,0.837,1.607,1.366c0.511,0.626,0.871,1.363,1.418,1.975
		c0.831,0.93,1.308,1.904,2.36,2.618c0.912,0.619,1.6,1.56,2.534,2.171c0.555,0.363,1.45,0.514,2.095,0.653
		c0.612,0.132,1.07,0.361,1.685,0.482c0.724,0.142,1.85,0.603,2.566,0.288c0.615-0.271,1.051-1.129,1.581-1.55
		c0.539-0.429,1.172-0.814,1.746-1.18c2.022-1.288,3.756-3.022,5.797-4.323c1.895-1.208,3.397-2.897,4.816-4.615
		c0.713-0.863,1.408-1.741,2.144-2.585c0.883-1.014,1.843-1.949,2.856-2.824c0.672-0.58,1.367-1.134,2.078-1.667
		c1.185-0.888,2.164-1.996,3.174-3.103c1.924-2.106,3.904-3.787,5.16-6.337C467.61,745.695,468.301,742.516,468.108,739.481z"/>
	<path clip-path="url(#SVGID_2_)" fill="#7F3A0A" d="M438.171,734.821c-0.777-0.279-1.472-0.7-2.045-1.227
		c-0.807,0.518-1.623,1.031-2.435,1.556c-3.627,2.343-6.491,5.237-9.02,8.726c-3.616,4.987-8.504,9.102-12.842,13.614
		c2.991,3.702,5.932,7.446,8.783,11.259l29.273-30.799C445.97,736.932,441.987,736.19,438.171,734.821z"/>
	<path clip-path="url(#SVGID_2_)" fill="#FFFFFF" d="M483.981,697.532c-43.71-3.533-64.076,8.105-64.076,8.105
		c8.531,11.834,17.597,16.577,22.788,18.644c8.809,3.509,18.207,3.423,36.642,3.108c4.578-0.079,8.731-0.248,12.346-0.449
		c5.667-0.315,11.331-0.315,16.999,0c3.614,0.201,7.768,0.37,12.346,0.449c18.435,0.315,27.832,0.401,36.641-3.108
		c5.192-2.067,14.258-6.81,22.788-18.644c0,0-20.365-11.638-64.075-8.105C505.594,698.404,494.766,698.404,483.981,697.532"/>
	<path clip-path="url(#SVGID_2_)" fill="#C5855F" d="M177.851,516.31c-18.443-17.945-55.001-65.737-51.707-118.967
		c0,0,17.028,51.241,35.673,67.291c0,0-12.741-27.454,2.625-58.995c-2.299,28.138,2.611,43.955,2.611,43.955
		c2.688-8.639,11.078-9.602,11.078-9.602C167.348,467.259,177.851,516.31,177.851,516.31"/>
	<path clip-path="url(#SVGID_2_)" fill="#C5855F" d="M822.661,516.31c18.443-17.945,55.001-65.737,51.707-118.967
		c0,0-17.028,51.241-35.673,67.291c0,0,12.741-27.454-2.625-58.995c2.299,28.138-2.611,43.955-2.611,43.955
		c-2.688-8.639-11.078-9.602-11.078-9.602C833.164,467.259,822.661,516.31,822.661,516.31"/>
	<path clip-path="url(#SVGID_2_)" fill="#2D2825" d="M545.412,740.169c-6.51,0.404-10.534-0.389-25.559-0.7
		c-8.343-0.17-15.179-0.093-19.669,0c-4.491-0.093-11.327-0.17-19.686,0c-5.958,0.12-10.177,0.324-13.514,0.491
		c-0.632,1.998-1.798,3.838-3.179,5.695c-3.124,4.2-6.026,8.61-8.821,13.035c-0.232,0.367-0.493,0.672-0.767,0.946
		c1.639,1.193,3.33,2.363,5.073,3.496c11.746,7.66,25.76,13.626,40.894,13.626c42.121,0,75.603-46.269,75.603-46.269
		C563.202,737.698,552.73,739.702,545.412,740.169z"/>
	<path clip-path="url(#SVGID_2_)" fill="#FFFFFF" d="M432.364,768.924c-2.467-1.904-5.112-3.558-7.652-4.658
		c-4.672-2.024-9.688-3.547-12.362-8.242c-0.036-0.063-0.064-0.126-0.097-0.189c-1.201-0.615-2.427-1.143-3.737-1.378
		l-82.348,77.551l14.761,9.664l5.267,3.449l11.388,16.92l2.766,6.557l81.519-86.896
		C438.816,777.369,435.843,772.921,432.364,768.924z"/>
	<path clip-path="url(#SVGID_2_)" fill="#ED6F11" d="M352.75,858.418c0,9.82-8.502,17.781-18.99,17.781s-18.99-7.961-18.99-17.781
		c0-9.82,8.502-17.781,18.99-17.781S352.75,848.598,352.75,858.418"/>
	<path clip-path="url(#SVGID_2_)" fill="#A09F9D" d="M416.233,764.023c-2.442-1.762-4.889-3.942-7.729-5.035
		c-1.185-0.456-2.026-1.207-2.575-2.094l-79.761,75.115l14.761,9.664l3.542,0.684l76.555-75.348
		C419.434,766.028,417.779,765.139,416.233,764.023z"/>
	<g clip-path="url(#SVGID_2_)">
		<path d="M404.138,752.448c0.762-0.1,1.741-0.401,2.509-0.338c1.91,0.157,3.787,0.359,5.697,0.412l-0.507,0.554
			c5.34,1.237,10.806,3.97,15.636,8.188c4.11,3.589,7.206,7.781,9.238,12.108c0.012,0.668,0.195,1.337,0.573,1.964
			c0.264,4.968,1.587,10.024,0.186,14.854c-0.434,0.425-0.881,0.841-1.355,1.235c-2.852,2.373-5.942,5.012-9.209,7.415
			c-0.004-1.38-0.255-2.622-0.633-3.836c0.136-0.309,0.246-0.645,0.325-1.009c2.547-11.762-7.49-24.355-18.841-28.834
			c-2.763-1.391-5.932-1.861-9.08-1.878c-2.119-0.285-4.293-0.312-6.463-0.233c2.179-2.472,4.432-4.886,6.683-7.27
			c1.066-1.129,2.242-2.216,3.442-3.301C402.952,752.475,403.578,752.522,404.138,752.448z"/>
	</g>
	<path clip-path="url(#SVGID_2_)" d="M472.391,731.715L362.085,857.012c-1.93-5.52-5.462-11.001-10.495-15.635
		c-4.91-4.522-10.507-7.54-16.034-9.051L442.008,732.06l-9.712-9.018L312.688,837.239c-8.719,9.47-5.44,26.675,7.325,38.429
		c7.279,6.703,16.07,10.186,23.9,10.186c4.662,0,8.97-1.257,12.427-3.784l0.38-0.001l1.427-1.522
		c0.257-0.247,0.524-0.477,0.768-0.741c0.157-0.171,0.281-0.362,0.431-0.538l126.51-142.374L472.391,731.715z M347.486,869.281
		c-0.861,0.935-2.785,1.036-3.572,1.036c-3.275,0-8.509-1.597-13.375-6.078c-7.134-6.569-8.227-14.512-6.42-16.475
		c0.86-0.934,2.786-1.035,3.574-1.036c3.274,0.001,8.507,1.597,13.373,6.078c3.684,3.393,6.229,7.603,6.981,11.551
		C348.467,866.562,348.253,868.448,347.486,869.281"/>
	<path clip-path="url(#SVGID_2_)" d="M335.579,444.851c4.28-4.378,14.734-13.78,29.498-14.606c9.913-0.554,17.439,3,28.926,8.592
		c17.235,8.391,20.016,14.262,32.648,20.62c8.097,4.076,20.604,8.533,38.663,8.592c-0.747,1.323-3.039,4.985-7.733,7.159
		c-4.141,1.919-7.901,1.636-9.451,1.432c-0.621,1.715-10.87,28.647-36.537,33.601c-16.501,3.185-29.996-4.524-34.774-7.253
		c-5.678-3.243-18.197-10.394-22.338-23.77c-4.22-13.63,0.859-31.789,0.859-31.789c-1.793-0.748-3.901-1.468-6.301-2.005
		C343.643,444.215,338.93,444.407,335.579,444.851"/>
	<path clip-path="url(#SVGID_2_)" fill="#FFFFFF" d="M370.805,451.152c0,0,16.038,2.864,20.334,8.019
		c-0.341,3.842-0.271,10.721,4.009,16.324c7.201,9.428,23.786,11.929,39.522,3.723c-0.109,0.588-0.28,1.427-0.537,2.421
		c-0.376,1.454-0.966,3.396-1.825,5.347c-2.247,5.103-6.929,7.012-8.807,7.984c-9.431,4.878-20.16,1.93-24.057,0.859
		c-3.905-1.074-26.453-7.27-30.644-26.062C367.042,461.886,369.219,454.957,370.805,451.152"/>
	<path clip-path="url(#SVGID_2_)" d="M664.447,444.075c-4.28-4.378-14.734-13.78-29.498-14.606c-9.913-0.554-17.439,3-28.926,8.592
		c-17.235,8.391-20.016,14.262-32.648,20.62c-8.097,4.076-20.604,8.533-38.663,8.592c0.747,1.323,3.039,4.985,7.733,7.159
		c4.141,1.919,7.901,1.636,9.451,1.432c0.621,1.715,10.87,28.647,36.537,33.601c16.501,3.185,29.996-4.524,34.774-7.253
		c5.678-3.243,18.198-10.394,22.338-23.77c4.22-13.63-0.859-31.789-0.859-31.789c1.793-0.748,3.901-1.468,6.301-2.005
		C656.383,443.439,661.096,443.631,664.447,444.075"/>
	<path clip-path="url(#SVGID_2_)" fill="#FFFFFF" d="M629.221,450.375c0,0-16.038,2.864-20.334,8.019
		c0.341,3.842,0.271,10.721-4.009,16.324c-7.201,9.428-23.786,11.929-39.522,3.723c0.109,0.588,0.279,1.427,0.537,2.421
		c0.376,1.454,0.966,3.396,1.825,5.347c2.247,5.103,6.929,7.012,8.807,7.984c9.431,4.878,20.16,1.93,24.057,0.859
		c3.905-1.074,26.453-7.27,30.644-26.062C632.983,461.109,630.806,454.18,629.221,450.375"/>
	<path clip-path="url(#SVGID_2_)" d="M332.73,476.561c0,0,18.127,67.327,96.33,39.361
		C429.06,515.922,335.837,579.624,332.73,476.561"/>
	<path clip-path="url(#SVGID_2_)" d="M662.375,475.784c0,0-18.127,67.327-96.33,39.361
		C566.045,515.145,659.268,578.847,662.375,475.784"/>
	<path clip-path="url(#SVGID_2_)" d="M359.834,417.866c23.553-4.304,37.659,0.498,46.266,5.87
		c11.33,7.07,13.402,15.297,25.205,23.133c14.355,9.53,30.715,10.256,42.468,9.322c-10.264-2.898-24.926-8.576-38.325-20.716
		c-12.643-11.456-14.631-20.032-24.859-25.205C401.705,405.777,386.602,403.85,359.834,417.866"/>
	<path clip-path="url(#SVGID_2_)" d="M638.811,417.866c-23.553-4.304-37.659,0.498-46.266,5.87
		c-11.33,7.07-13.402,15.297-25.205,23.133c-14.355,9.53-30.715,10.256-42.468,9.322c10.264-2.898,24.926-8.576,38.325-20.716
		c12.643-11.456,14.631-20.032,24.859-25.205C596.94,405.777,612.043,403.85,638.811,417.866"/>
	<path clip-path="url(#SVGID_2_)" fill="none" stroke="#000000" stroke-width="5" stroke-miterlimit="10" d="M445.286,694.412
		c0,0,9.322,28.485,12.43,35.217"/>
	<path clip-path="url(#SVGID_2_)" fill="none" stroke="#000000" stroke-width="5" stroke-miterlimit="10" d="M481.974,693.54
		c0,0,3.607,29.753,5.346,36.962"/>
	
		<line clip-path="url(#SVGID_2_)" fill="none" stroke="#000000" stroke-width="5" stroke-miterlimit="10" x1="550.42" y1="693.721" x2="543.86" y2="731.01"/>
	
		<line clip-path="url(#SVGID_2_)" fill="none" stroke="#000000" stroke-width="5" stroke-miterlimit="10" x1="518.836" y1="692.744" x2="513.641" y2="730.953"/>
</g>
</svg>
